<?xml version="1.0" encoding="utf-8"?>
<!-- Generator: Adobe Illustrator 15.0.0, SVG Export Plug-In . SVG Version: 6.00 Build 0)  -->
<!DOCTYPE svg PUBLIC "-//W3C//DTD SVG 1.1//EN" "http://www.w3.org/Graphics/SVG/1.1/DTD/svg11.dtd">
<svg version="1.1" id="Layer_1" xmlns="http://www.w3.org/2000/svg" xmlns:xlink="http://www.w3.org/1999/xlink" x="0px" y="0px"
	 width="1000px" height="350px" viewBox="0 0 1000 350" enable-background="new 0 0 1000 350" xml:space="preserve">
<g>
	<rect x="59.122" y="247.094" fill="#1D1D1B" width="154.422" height="10.76"/>
	<rect x="59.122" y="211.188" fill="#1D1D1B" width="154.422" height="10.761"/>
	<g>
		<rect x="156.98" y="175.287" fill="#1D1D1B" width="56.563" height="10.759"/>
	</g>
	<g>
		<rect x="156.98" y="142.071" fill="#1D1D1B" width="56.563" height="10.76"/>
	</g>
	<polygon fill="#1D1D1B" points="235.937,128.361 235.937,321.701 36.728,321.701 36.728,86.438 134.526,86.438 134.526,72.988 
		23.277,72.988 23.277,335.15 249.387,335.15 249.387,128.361 	"/>
	<rect x="59.122" y="282.995" fill="#1D1D1B" width="154.422" height="10.761"/>
	<path fill="#1D1D1B" d="M305.197,268.484V141.756h54.058c24.106,0,36.158,10.132,36.158,30.396
		c0,16.483-11.787,28.684-35.36,36.601l43.513,59.731h-21.624l-40.322-56.983v-10.723c24.222-3.841,36.335-13.146,36.335-27.917
		c0-11.698-6.736-17.548-20.207-17.548h-36.157v113.171H305.197z"/>
	<path fill="#1D1D1B" d="M452.069,175.431c26.466,0,39.702,13.087,39.702,39.26c0,3.723-0.267,7.71-0.798,11.966h-65.313
		c0,19.023,11.106,28.533,33.321,28.533c10.577,0,19.969-1.18,28.182-3.544v13.293c-8.213,2.364-18.198,3.546-29.954,3.546
		c-31.963,0-47.944-15.863-47.944-47.589C409.264,190.586,423.532,175.431,452.069,175.431z M425.659,213.007h50.337
		c-0.354-16.307-8.33-24.46-23.927-24.46C435.526,188.547,426.723,196.7,425.659,213.007z"/>
	<path fill="#1D1D1B" d="M510.261,264.054v-14.181c10.931,3.546,21.978,5.316,33.145,5.316c14.828,0,22.245-4.429,22.245-13.292
		c0-8.27-5.173-12.407-15.511-12.407h-13.292c-20.088,0-30.133-9.157-30.133-27.472c0-17.725,12.908-26.588,38.729-26.588
		c11.106,0,22.124,1.479,33.055,4.432v14.18c-10.931-3.546-21.948-5.316-33.055-5.316c-15.481,0-23.22,4.433-23.22,13.293
		c0,8.272,4.876,12.406,14.624,12.406h13.292c21.269,0,31.904,9.157,31.904,27.473c0,17.724-12.882,26.587-38.639,26.587
		C532.238,268.484,521.191,267.009,510.261,264.054z"/>
	<path fill="#1D1D1B" d="M681.71,175.431v93.054h-11.254l-2.837-11.877c-11.285,7.919-22.629,11.877-34.029,11.877
		c-21.388,0-32.083-11.551-32.083-34.652v-58.401h16.396v58.667c0,13.825,6.853,20.737,20.561,20.737
		c9.394,0,18.344-3.928,26.853-11.784v-67.62H681.71z"/>
	<path fill="#1D1D1B" d="M705.607,268.484v-93.054h11.078l2.747,11.701c8.922-7.8,18.641-11.701,29.157-11.701
		c13.471,0,22.657,4.255,27.562,12.762c10.103-8.507,20.351-12.762,30.75-12.762c21.387,0,32.081,11.787,32.081,35.361v57.692
		h-16.395v-58.577c0-13.884-5.848-20.827-17.546-20.827c-8.745,0-16.928,4.017-24.549,12.053v67.352h-16.395v-58.313
		c0-14.062-5.793-21.092-17.369-21.092c-9.218,0-17.459,4.017-24.728,12.053v67.352H705.607z"/>
	<path fill="#1D1D1B" d="M881.044,141.756v15.509h-16.395v-15.509H881.044z M881.044,175.431v93.054h-16.395v-93.054H881.044z"/>
	<path fill="#1D1D1B" d="M976.723,265.826c-7.681,1.771-15.951,2.658-24.813,2.658c-33.087,0-49.626-16.101-49.626-48.299
		c0-29.833,16.539-44.755,49.626-44.755c8.862,0,17.133,0.889,24.813,2.661v13.292c-7.681-1.772-16.247-2.658-25.699-2.658
		c-21.564,0-32.346,10.487-32.346,31.46c0,23.338,10.781,35.004,32.346,35.004c9.452,0,18.019-0.885,25.699-2.658V265.826z"/>
	<g>
		<path fill="#1D1D1B" d="M114.417,132.625c0,9.722-7.874,17.59-17.592,17.59c-9.719,0-17.594-7.868-17.594-17.59
			c0-9.714,7.875-17.593,17.594-17.593C106.543,115.032,114.417,122.911,114.417,132.625z"/>
		<path fill="#1D1D1B" d="M114.122,156.146c-4.461,4.366-10.561,7.069-17.296,7.069c-6.74,0-12.837-2.703-17.299-7.069
			c-11.057,0.489-19.936,9.36-20.386,20.428c-0.013,0.291-0.019,9.176-0.019,9.472h75.405c0-0.268-0.005-9.117-0.015-9.383
			C134.105,165.553,125.208,156.638,114.122,156.146z"/>
	</g>
	<g>
		<rect x="156.98" y="105.909" fill="#1D1D1B" width="17.262" height="17.262"/>
		<rect x="156.98" y="52.422" fill="#1D1D1B" width="26.746" height="26.74"/>
		<rect x="198.433" y="79.162" fill="#1D1D1B" width="26.745" height="26.748"/>
		<rect x="211.806" y="14.849" fill="#1D1D1B" width="37.581" height="37.573"/>
	</g>
</g>
</svg>
