<?xml version="1.0" encoding="UTF-8" standalone="no"?>
<svg
   xmlns:dc="http://purl.org/dc/elements/1.1/"
   xmlns:cc="http://creativecommons.org/ns#"
   xmlns:rdf="http://www.w3.org/1999/02/22-rdf-syntax-ns#"
   xmlns:svg="http://www.w3.org/2000/svg"
   xmlns="http://www.w3.org/2000/svg"
   xmlns:sodipodi="http://sodipodi.sourceforge.net/DTD/sodipodi-0.dtd"
   xmlns:inkscape="http://www.inkscape.org/namespaces/inkscape"
   aria-hidden="true"
   focusable="false"
   data-prefix="fas"
   data-icon="building"
   class="svg-inline--fa fa-building fa-w-14"
   role="img"
   viewBox="0 0 1500 600"
   version="1.1"
   id="svg4"
   sodipodi:docname="entity.svg"
   width="1500"
   height="600"
   inkscape:version="0.92.4 5da689c313, 2019-01-14">
  <metadata
     id="metadata10">
    <rdf:RDF>
      <cc:Work
         rdf:about="">
        <dc:format>image/svg+xml</dc:format>
        <dc:type
           rdf:resource="http://purl.org/dc/dcmitype/StillImage" />
        <dc:title />
      </cc:Work>
    </rdf:RDF>
  </metadata>
  <defs
     id="defs8" />
  <sodipodi:namedview
     pagecolor="#ffffff"
     bordercolor="#666666"
     borderopacity="1"
     objecttolerance="10"
     gridtolerance="10"
     guidetolerance="10"
     inkscape:pageopacity="0"
     inkscape:pageshadow="2"
     inkscape:window-width="956"
     inkscape:window-height="1041"
     id="namedview6"
     showgrid="false"
     inkscape:zoom="0.4609375"
     inkscape:cx="85.480383"
     inkscape:cy="256"
     inkscape:window-x="2326"
     inkscape:window-y="18"
     inkscape:window-maximized="0"
     inkscape:current-layer="svg4" />
  <path
     d="M 514,524 H 494 V 67.999999 c 0,-13.255 -10.745,-24 -24,-24 H 134 c -13.255,0 -24,10.745 -24,24 V 524 H 90 c -6.627,0 -12,5.373 -12,12 v 20 h 448 v -20 c 0,-6.627 -5.373,-12 -12,-12 z M 206,120 c 0,-6.627 5.373,-12 12,-12 h 40 c 6.627,0 12,5.373 12,12 v 40 c 0,6.627 -5.373,12 -12,12 h -40 c -6.627,0 -12,-5.373 -12,-12 z m 0,96 c 0,-6.627 5.373,-12 12,-12 h 40 c 6.627,0 12,5.373 12,12 v 40 c 0,6.627 -5.373,12 -12,12 h -40 c -6.627,0 -12,-5.373 -12,-12 z m 52,148 h -40 c -6.627,0 -12,-5.373 -12,-12 v -40 c 0,-6.627 5.373,-12 12,-12 h 40 c 6.627,0 12,5.373 12,12 v 40 c 0,6.627 -5.373,12 -12,12 z m 76,160 h -64 v -84 c 0,-6.627 5.373,-12 12,-12 h 40 c 6.627,0 12,5.373 12,12 z m 64,-172 c 0,6.627 -5.373,12 -12,12 h -40 c -6.627,0 -12,-5.373 -12,-12 v -40 c 0,-6.627 5.373,-12 12,-12 h 40 c 6.627,0 12,5.373 12,12 z m 0,-96 c 0,6.627 -5.373,12 -12,12 h -40 c -6.627,0 -12,-5.373 -12,-12 v -40 c 0,-6.627 5.373,-12 12,-12 h 40 c 6.627,0 12,5.373 12,12 z m 0,-96 c 0,6.627 -5.373,12 -12,12 h -40 c -6.627,0 -12,-5.373 -12,-12 v -40 c 0,-6.627 5.373,-12 12,-12 h 40 c 6.627,0 12,5.373 12,12 z"
     id="path2"
     inkscape:connector-curvature="0"
     style="fill:currentColor" />
  <g
     aria-label="Entity Logo


Placeholder"
     transform="translate(-186.66489,84.351991)"
     style="font-style:normal;font-variant:normal;font-weight:normal;font-stretch:normal;font-size:40px;line-height:125%;font-family:'DIN Alternate';-inkscape-font-specification:'DIN Alternate';font-variant-ligatures:normal;font-variant-caps:normal;font-variant-numeric:normal;font-feature-settings:normal;text-align:center;letter-spacing:0px;word-spacing:0px;writing-mode:lr-tb;text-anchor:middle;fill:#000000;fill-opacity:1;stroke:none;stroke-width:1px;stroke-linecap:butt;stroke-linejoin:miter;stroke-opacity:1"
     id="flowRoot12">
    <path
       d="m 868.57227,79.816432 q -1.09375,0 -2.42188,-0.390625 -13.20312,-3.75 -25.46875,-3.75 -6.40625,0 -13.98437,1.171875 -7.57813,1.171875 -16.32813,3.59375 0.70313,5.078125 0.70313,8.125 0,10.859375 -1.32813,29.843748 l 34.21875,-3.28125 q 15.07813,-1.5625 18.51563,-1.5625 3.4375,0 5.78125,2.1875 2.34375,2.1875 2.34375,5.85938 0,7.10937 -7.1875,7.96875 l -18.59375,1.64062 -36.09375,3.28125 q -0.3125,5.54688 -0.54688,10.54688 -0.15625,4.92187 -0.15625,9.21875 0,17.26562 2.5,20.3125 1.875,2.1875 12.26563,2.1875 4.84375,0 14.53125,-0.23438 9.76562,-0.3125 14.6875,-0.3125 1.5625,0 4.60937,-0.46875 3.04688,-0.54687 4.53125,-0.54687 8.28125,0 8.28125,8.125 0,6.5625 -6.64062,7.89062 -7.34375,1.48438 -31.79688,1.48438 -24.21875,0 -31.09375,-6.40625 -7.5,-6.95313 -7.5,-32.03125 0,-5 0.23438,-10.9375 0.23437,-5.9375 0.625,-12.8125 -0.85938,-1.79688 -0.85938,-3.82813 0,-2.65625 1.48438,-4.76562 1.5625,-22.578128 1.5625,-33.359378 0,-2.890625 -0.78125,-8.4375 -0.78125,-5.625 -0.78125,-8.515625 0,-9.296875 7.8125,-9.296875 3.28125,0 5.625,2.265625 9.375,-2.5 17.65625,-3.75 8.35937,-1.25 15.70312,-1.25 18.98438,0 30.3125,4.53125 5.23438,2.109375 5.23438,7.5 0,3.125 -2.03125,5.546875 -2.26563,2.65625 -5.625,2.65625 z"
       style="font-style:normal;font-variant:normal;font-weight:normal;font-stretch:normal;font-size:160px;font-family:'Comic Sans MS';-inkscape-font-specification:'Comic Sans MS, Normal';font-variant-ligatures:normal;font-variant-caps:normal;font-variant-numeric:normal;font-feature-settings:normal;text-align:center;writing-mode:lr-tb;text-anchor:middle"
       id="path14" />
    <path
       d="m 952.16602,190.51956 q -6.71875,0 -7.57813,-7.34375 l -2.1875,-17.10938 q -1.09375,-9.14062 -1.09375,-17.10937 0,-2.1875 0.23438,-7.42188 0.3125,-5.23437 0.3125,-7.42187 0,-16.875 -6.25,-16.875 -8.75,0 -16.71875,10.39062 -7.1875,9.45313 -11.25,23.90625 -0.15625,3.04688 -0.70313,7.65625 -0.46875,3.90625 -0.46875,7.57813 0,2.34375 0.46875,7.03125 0.46875,4.6875 0.46875,7.03125 0,3.51562 -2.1875,5.70312 -2.10937,2.1875 -5.46875,2.1875 -3.4375,0 -5.54687,-2.1875 -2.10938,-2.1875 -2.10938,-5.70312 0,-2.34375 -0.54687,-7.03125 -0.46875,-4.6875 -0.46875,-7.03125 0,-8.04688 1.09375,-22.26563 1.17187,-14.29687 1.17187,-22.34375 0,-2.5 -0.3125,-7.42187 -0.23437,-4.92188 -0.23437,-7.42188 0,-3.35937 2.1875,-5.46875 2.26562,-2.187498 5.54687,-2.187498 7.1875,0 7.89063,10.156248 l 0.23437,9.14063 q 13.125,-17.5 26.95313,-17.5 12.5,0 17.42187,11.01562 3.35938,7.34375 3.67188,21.71875 v 7.89063 l -0.0781,7.26562 q 0,6.48438 1.64063,16.79688 1.71875,10.23437 1.71875,16.64062 0,3.4375 -2.26563,5.54688 -2.1875,2.1875 -5.54687,2.1875 z"
       style="font-style:normal;font-variant:normal;font-weight:normal;font-stretch:normal;font-size:160px;font-family:'Comic Sans MS';-inkscape-font-specification:'Comic Sans MS, Normal';font-variant-ligatures:normal;font-variant-caps:normal;font-variant-numeric:normal;font-feature-settings:normal;text-align:center;writing-mode:lr-tb;text-anchor:middle"
       id="path16" />
    <path
       d="m 1028.2598,118.41018 q -1.6407,0 -3.9063,-0.15625 -2.1875,-0.15625 -3.8281,-0.15625 -1.7969,0 -10.625,1.17188 l 1.4844,46.17187 0.078,3.4375 0.078,3.98438 q 0.3125,17.10937 -8.2031,17.10937 -3.125,0 -5.46876,-2.03125 -2.26562,-2.03125 -2.26562,-5.07812 0,-2.96875 0.23437,-8.90625 0.23438,-5.9375 0.23438,-8.90625 l -1.5625,-45.625 q -5.70313,-0.23438 -17.34375,-1.32813 -6.95313,-0.9375 -6.95313,-7.73437 0,-3.4375 2.10938,-5.70313 2.10937,-2.26562 5.39062,-2.26562 l 16.40625,1.32812 q 0,-3.984373 -0.39062,-10.624998 -0.3125,-6.71875 -0.3125,-9.6875 0,-3.28125 2.26562,-5.390625 2.26563,-2.1875 5.54686,-2.1875 7.0313,0 8.2031,11.484375 0.2344,2.890625 0.2344,6.953125 l -0.1562,4.53125 -0.078,4.843753 q 9.6875,-1.25 11.0938,-1.25 8.125,0 10.625,0.78125 4.7656,1.5625 4.7656,7.34375 0,3.4375 -2.1875,5.70312 -2.1094,2.1875 -5.4687,2.1875 z"
       style="font-style:normal;font-variant:normal;font-weight:normal;font-stretch:normal;font-size:160px;font-family:'Comic Sans MS';-inkscape-font-specification:'Comic Sans MS, Normal';font-variant-ligatures:normal;font-variant-caps:normal;font-variant-numeric:normal;font-feature-settings:normal;text-align:center;writing-mode:lr-tb;text-anchor:middle"
       id="path18" />
    <path
       d="m 1066.3066,86.066432 q -3.75,0 -6.4843,-2.65625 -2.7344,-2.65625 -2.7344,-6.40625 0,-3.75 2.7344,-6.40625 2.7343,-2.65625 6.4843,-2.65625 3.75,0 6.4063,2.65625 2.7344,2.65625 2.7344,6.40625 0,3.75 -2.7344,6.40625 -2.6563,2.65625 -6.4063,2.65625 z m 3.5157,63.437498 q 0,4.6875 0.2343,14.0625 0.3125,9.29688 0.3125,13.98438 0,3.4375 -2.1093,5.625 -2.1094,2.1875 -5.5469,2.1875 -3.3594,0 -5.5469,-2.1875 -2.1094,-2.1875 -2.1094,-5.625 0,-4.6875 -0.3125,-13.98438 -0.2343,-9.375 -0.2343,-14.0625 0,-7.34375 0.7812,-18.28125 0.7813,-11.01562 0.7813,-18.35937 0,-3.51563 2.1093,-5.70313 2.1875,-2.1875 5.5469,-2.1875 3.3594,0 5.4688,2.1875 2.1875,2.1875 2.1875,5.70313 0,7.34375 -0.7813,18.35937 -0.7812,10.9375 -0.7812,18.28125 z"
       style="font-style:normal;font-variant:normal;font-weight:normal;font-stretch:normal;font-size:160px;font-family:'Comic Sans MS';-inkscape-font-specification:'Comic Sans MS, Normal';font-variant-ligatures:normal;font-variant-caps:normal;font-variant-numeric:normal;font-feature-settings:normal;text-align:center;writing-mode:lr-tb;text-anchor:middle"
       id="path20" />
    <path
       d="m 1148.4941,118.41018 q -1.6406,0 -3.9062,-0.15625 -2.1875,-0.15625 -3.8281,-0.15625 -1.7969,0 -10.625,1.17188 l 1.4843,46.17187 0.078,3.4375 0.078,3.98438 q 0.3125,17.10937 -8.2031,17.10937 -3.125,0 -5.4688,-2.03125 -2.2656,-2.03125 -2.2656,-5.07812 0,-2.96875 0.2344,-8.90625 0.2343,-5.9375 0.2343,-8.90625 l -1.5625,-45.625 q -5.7031,-0.23438 -17.3437,-1.32813 -6.9531,-0.9375 -6.9531,-7.73437 0,-3.4375 2.1093,-5.70313 2.1094,-2.26562 5.3907,-2.26562 l 16.4062,1.32812 q 0,-3.984373 -0.3906,-10.624998 -0.3125,-6.71875 -0.3125,-9.6875 0,-3.28125 2.2656,-5.390625 2.2656,-2.1875 5.5469,-2.1875 7.0312,0 8.2031,11.484375 0.2344,2.890625 0.2344,6.953125 l -0.1563,4.53125 -0.078,4.843753 q 9.6875,-1.25 11.0938,-1.25 8.125,0 10.625,0.78125 4.7656,1.5625 4.7656,7.34375 0,3.4375 -2.1875,5.70312 -2.1094,2.1875 -5.4688,2.1875 z"
       style="font-style:normal;font-variant:normal;font-weight:normal;font-stretch:normal;font-size:160px;font-family:'Comic Sans MS';-inkscape-font-specification:'Comic Sans MS, Normal';font-variant-ligatures:normal;font-variant-caps:normal;font-variant-numeric:normal;font-feature-settings:normal;text-align:center;writing-mode:lr-tb;text-anchor:middle"
       id="path22" />
    <path
       d="m 1239.7441,115.28518 -27.0312,58.4375 q -10,21.32813 -15.3125,35.70313 l -5.1563,15.15625 q -2.0312,5.625 -7.0312,5.625 -3.2813,0 -5.7031,-2.1875 -2.3438,-2.10938 -2.3438,-5.3125 0,-7.8125 16.875,-45.23438 l -27.9687,-53.82812 -3.5157,-5.70313 q -2.1093,-3.59375 -2.1093,-6.01562 0,-3.20313 2.4218,-5.625 2.5,-2.42188 5.5469,-2.42188 3.5938,0 5.5469,2.73438 13.2812,18.4375 28.5156,52.5 l 11.5625,-26.95313 q 6.25,-13.98437 12.0313,-24.0625 2.5,-4.375 6.5625,-4.375 3.2031,0 5.625,2.26563 2.5,2.26562 2.5,5.39062 0,1.71875 -1.0157,3.90625 z"
       style="font-style:normal;font-variant:normal;font-weight:normal;font-stretch:normal;font-size:160px;font-family:'Comic Sans MS';-inkscape-font-specification:'Comic Sans MS, Normal';font-variant-ligatures:normal;font-variant-caps:normal;font-variant-numeric:normal;font-feature-settings:normal;text-align:center;writing-mode:lr-tb;text-anchor:middle"
       id="path24" />
    <path
       d="m 1371.9316,181.76956 q -8.8281,4.14062 -27.7343,7.42187 -17.4219,3.04688 -28.4375,3.04688 -7.8907,0 -11.3282,-2.42188 -4.6875,-3.28125 -4.6875,-12.03125 l 1.5625,-25.85937 q 2.0313,-35.78125 2.0313,-79.375003 0,-3.359375 2.1875,-5.703125 2.2656,-2.34375 5.5469,-2.34375 3.3593,0 5.5468,2.34375 2.2657,2.34375 2.2657,5.703125 0,44.140623 -2.1094,80.312503 l -1.0156,11.875 q -0.625,6.48437 -0.4688,11.48437 20.3906,0.23438 51.5625,-9.60937 1.3281,-0.39063 2.5,-0.39063 3.3594,0 5.625,2.65625 1.9531,2.42188 1.9531,5.54688 0,5 -5,7.34375 z"
       style="font-style:normal;font-variant:normal;font-weight:normal;font-stretch:normal;font-size:160px;font-family:'Comic Sans MS';-inkscape-font-specification:'Comic Sans MS, Normal';font-variant-ligatures:normal;font-variant-caps:normal;font-variant-numeric:normal;font-feature-settings:normal;text-align:center;writing-mode:lr-tb;text-anchor:middle"
       id="path26" />
    <path
       d="m 1420.1348,189.58206 q -13.125,0 -22.5782,-9.6875 -10.5468,-10.78125 -11.0937,-28.98438 -0.4688,-17.65625 8.9062,-31.09375 10.9375,-15.85937 30.4688,-15.85937 15.625,0 23.6719,14.29687 6.4062,11.5625 6.1718,27.8125 -0.2343,17.34375 -9.0625,29.60938 -10,13.90625 -26.4843,13.90625 z m 4.6875,-69.76563 q -11.4844,-0.0781 -17.8907,10.9375 -5.0781,8.82813 -5.0781,20.15625 0,11.32813 6.1719,17.65625 5.1562,5.23438 12.1094,5.23438 8.125,0 13.9843,-5.9375 6.6407,-6.5625 7.0313,-17.73438 1.0937,-30.23437 -16.3281,-30.3125 z"
       style="font-style:normal;font-variant:normal;font-weight:normal;font-stretch:normal;font-size:160px;font-family:'Comic Sans MS';-inkscape-font-specification:'Comic Sans MS, Normal';font-variant-ligatures:normal;font-variant-caps:normal;font-variant-numeric:normal;font-feature-settings:normal;text-align:center;writing-mode:lr-tb;text-anchor:middle"
       id="path28" />
    <path
       d="m 1539.2754,151.30081 -1.7969,26.25 q -0.4687,15.625 -3.2031,25.54687 -3.5156,12.65625 -11.25,18.67188 -9.375,7.26562 -27.1094,7.26562 -10.3906,0 -17.4219,-1.40625 -9.8437,-1.95312 -9.8437,-8.125 0,-6.95312 6.7969,-6.95312 2.8125,0 9.375,1.32812 6.5625,1.40625 14.5312,1.25 15,-0.23437 20.7031,-14.53125 3.75,-9.53125 3.9844,-29.29687 -4.2187,7.8125 -10.0781,11.71875 -5.7813,3.90625 -13.2813,3.90625 -14.1406,0 -23.0468,-9.60938 -8.8282,-9.6875 -8.8282,-25.07812 0,-21.09375 12.1094,-33.98438 12.5,-13.28125 34.0625,-13.28125 7.2656,0 12.1875,1.875 4.9219,1.875 7.5,5.625 8.3594,0.23438 8.3594,9.29688 0,5.54687 -1.6406,14.84375 -1.7969,10.78125 -2.1094,14.6875 z m -25.0781,-33.82813 q -14.8438,0 -22.9688,10.23438 -7.2656,9.21875 -7.2656,23.4375 0,11.32812 4.2969,17.03125 4.2968,5.70312 12.8906,5.70312 7.8906,0 15.3125,-8.90625 6.7187,-8.20312 7.6562,-16.25 1.6407,-8.4375 3.5157,-26.48437 -3.125,-2.42188 -6.4844,-3.59375 -3.3594,-1.17188 -6.9531,-1.17188 z"
       style="font-style:normal;font-variant:normal;font-weight:normal;font-stretch:normal;font-size:160px;font-family:'Comic Sans MS';-inkscape-font-specification:'Comic Sans MS, Normal';font-variant-ligatures:normal;font-variant-caps:normal;font-variant-numeric:normal;font-feature-settings:normal;text-align:center;writing-mode:lr-tb;text-anchor:middle"
       id="path30" />
    <path
       d="m 1589.1973,189.58206 q -13.125,0 -22.5782,-9.6875 -10.5468,-10.78125 -11.0937,-28.98438 -0.4688,-17.65625 8.9062,-31.09375 10.9375,-15.85937 30.4688,-15.85937 15.625,0 23.6719,14.29687 6.4062,11.5625 6.1718,27.8125 -0.2343,17.34375 -9.0625,29.60938 -10,13.90625 -26.4843,13.90625 z m 4.6875,-69.76563 q -11.4844,-0.0781 -17.8907,10.9375 -5.0781,8.82813 -5.0781,20.15625 0,11.32813 6.1719,17.65625 5.1562,5.23438 12.1094,5.23438 8.125,0 13.9843,-5.9375 6.6407,-6.5625 7.0313,-17.73438 1.0937,-30.23437 -16.3281,-30.3125 z"
       style="font-style:normal;font-variant:normal;font-weight:normal;font-stretch:normal;font-size:160px;font-family:'Comic Sans MS';-inkscape-font-specification:'Comic Sans MS, Normal';font-variant-ligatures:normal;font-variant-caps:normal;font-variant-numeric:normal;font-feature-settings:normal;text-align:center;writing-mode:lr-tb;text-anchor:middle"
       id="path32" />
    <path
       d="m 810.7207,314.83575 q -2.1875,0 -9.53125,-1.01562 -0.625,11.79687 -0.625,41.32812 0,3.125 -2.03125,5.3125 -2.03125,2.10938 -5.07812,2.10938 -3.125,0 -5.15625,-2.10938 -2.03125,-2.1875 -2.03125,-5.3125 V 332.1795 q 0,-11.48437 1.40625,-32.34375 1.5625,-22.57812 1.71875,-32.34375 v -10.78125 q 0,-7.73437 0.9375,-11.25 1.79687,-6.875 7.65625,-5.9375 2.5,-0.78125 7.10937,-1.17187 4.60938,-0.39063 11.32813,-0.39063 14.29687,0 26.79687,9.76563 13.75,10.78125 13.75,25.9375 0,19.375 -14.6875,30.85937 -13.125,10.3125 -31.5625,10.3125 z m 3.90625,-62.03125 q -3.4375,0 -6.17187,0.15625 -2.65625,0.15625 -4.53125,0.46875 l -0.15625,14.375 -1.64063,31.09375 8.59375,1.01563 q 13.125,0 22.10938,-6.64063 9.84375,-7.26562 9.84375,-19.60937 0,-8.75 -9.375,-15.07813 -8.67188,-5.78125 -18.67188,-5.78125 z"
       style="font-style:normal;font-variant:normal;font-weight:normal;font-stretch:normal;font-size:160px;font-family:'Comic Sans MS';-inkscape-font-specification:'Comic Sans MS, Normal';font-variant-ligatures:normal;font-variant-caps:normal;font-variant-numeric:normal;font-feature-settings:normal;text-align:center;writing-mode:lr-tb;text-anchor:middle"
       id="path34" />
    <path
       d="m 892.43945,299.28888 -1.17187,38.82812 q 0,6.17188 -0.625,18.125 -0.78125,7.8125 -7.65625,7.8125 -7.65625,0 -7.65625,-7.96875 0,-9.45312 0.85937,-28.35937 0.85938,-18.98438 0.85938,-28.4375 0,-12.34375 0.39062,-28.20313 0.39063,-15.9375 0.39063,-28.28125 0,-7.8125 7.65625,-7.8125 7.73437,0 7.73437,7.8125 0,12.34375 -0.39062,28.28125 -0.39063,15.85938 -0.39063,28.20313 z"
       style="font-style:normal;font-variant:normal;font-weight:normal;font-stretch:normal;font-size:160px;font-family:'Comic Sans MS';-inkscape-font-specification:'Comic Sans MS, Normal';font-variant-ligatures:normal;font-variant-caps:normal;font-variant-numeric:normal;font-feature-settings:normal;text-align:center;writing-mode:lr-tb;text-anchor:middle"
       id="path36" />
    <path
       d="m 977.43945,365.85138 q -1.48437,0 -5.39062,-3.4375 -3.51563,-3.20313 -5.23438,-5.70313 -7.5,4.0625 -13.20312,6.09375 -5.70313,2.10938 -9.53125,2.10938 -18.28125,0 -26.64063,-10.3125 -7.89062,-9.6875 -7.89062,-29.6875 0,-18.90625 12.96875,-32.34375 13.04687,-13.4375 31.09375,-13.4375 6.79687,0 15.23437,3.51562 10.625,4.375 10.625,10.54688 0,2.10937 -1.5625,3.75 -0.78125,2.96875 -1.25,9.76562 -0.39062,6.79688 -0.46875,17.42188 -0.0781,9.6875 1.32813,15.3125 0.78125,3.4375 4.92187,13.75 0.54688,1.40625 1.79688,4.14062 l 0.46875,1.32813 q 0,3.125 -2.1875,5.15625 -2.1875,2.03125 -5.07813,2.03125 z m -16.25,-54.29688 q 0,-3.35937 0.39063,-7.26562 0.46875,-3.98438 1.32812,-8.4375 -2.89062,-1.48438 -5,-2.1875 -2.03125,-0.70313 -3.28125,-0.70313 -12.10937,0 -20.9375,9.92188 -8.75,9.84375 -8.75,22.73437 0,12.8125 4.53125,19.21875 4.53125,6.40625 13.59375,6.40625 7.5,0 12.73438,-2.73437 2.8125,-1.48438 7.89062,-5.9375 -2.5,-20.70313 -2.5,-31.01563 z"
       style="font-style:normal;font-variant:normal;font-weight:normal;font-stretch:normal;font-size:160px;font-family:'Comic Sans MS';-inkscape-font-specification:'Comic Sans MS, Normal';font-variant-ligatures:normal;font-variant-caps:normal;font-variant-numeric:normal;font-feature-settings:normal;text-align:center;writing-mode:lr-tb;text-anchor:middle"
       id="path38" />
    <path
       d="m 1033.6113,365.617 q -16.0156,0 -26.7187,-9.6875 -11.25002,-10.15625 -11.25002,-26.79687 0,-15.85938 10.54692,-32.73438 11.7187,-18.75 26.4062,-18.75 7.6563,0 17.1094,3.59375 11.9531,4.60938 11.9531,11.25 0,2.96875 -1.9531,5.3125 -1.9531,2.26563 -4.8438,2.26563 -2.2656,0 -3.9843,-1.32813 -1.6407,-1.40625 -3.2032,-2.73437 -4.6093,-3.67188 -15.0781,-3.67188 -7.9687,0 -15.7812,14.21875 -7.1094,13.04688 -7.1094,22.57813 0,10.3125 7.0312,16.25 6.5625,5.54687 16.875,5.54687 4.6875,0 10,-2.5 l 9.0625,-4.84375 q 2.3438,-1.25 3.3594,-1.25 2.8906,0 5,2.34375 2.1094,2.26563 2.1094,5.23438 0,5.70312 -12.0313,11.01562 -10.5468,4.6875 -17.5,4.6875 z"
       style="font-style:normal;font-variant:normal;font-weight:normal;font-stretch:normal;font-size:160px;font-family:'Comic Sans MS';-inkscape-font-specification:'Comic Sans MS, Normal';font-variant-ligatures:normal;font-variant-caps:normal;font-variant-numeric:normal;font-feature-settings:normal;text-align:center;writing-mode:lr-tb;text-anchor:middle"
       id="path40" />
    <path
       d="m 1116.9707,364.28888 q -17.6562,0 -28.5937,-8.82813 -11.9532,-9.76562 -11.9532,-27.34375 0,-20.3125 9.8438,-34.0625 10.7031,-15 28.5937,-15 12.9688,0 21.1719,4.375 10.0781,5.39063 10.0781,16.5625 0,7.8125 -8.8281,14.21875 -3.9062,2.8125 -16.5625,8.75 l -29.8437,14.14063 q 4.375,6.48437 10.8593,9.76562 6.5625,3.28125 15.2344,3.28125 5.3906,0 12.6563,-2.03125 9.2187,-2.57812 11.875,-6.71875 2.6562,-4.21875 5.7031,-4.21875 2.7344,0 4.8437,2.10938 2.1875,2.03125 2.1875,4.76562 0,8.67188 -13.9843,14.92188 -11.9532,5.3125 -23.2813,5.3125 z m -2.1094,-71.17188 q -9.5312,0 -15.8593,7.42188 -6.3282,7.34375 -9.4532,22.1875 l 23.9844,-11.40625 q 14.1406,-6.875 20.1563,-11.95313 -6.7188,-6.25 -18.8282,-6.25 z"
       style="font-style:normal;font-variant:normal;font-weight:normal;font-stretch:normal;font-size:160px;font-family:'Comic Sans MS';-inkscape-font-specification:'Comic Sans MS, Normal';font-variant-ligatures:normal;font-variant-caps:normal;font-variant-numeric:normal;font-feature-settings:normal;text-align:center;writing-mode:lr-tb;text-anchor:middle"
       id="path42" />
    <path
       d="m 1233.5332,365.53888 q -5.5469,0 -7.2656,-5.9375 -1.7969,-6.40625 -3.2813,-18.20313 -1.4062,-11.32812 -1.4062,-18.59375 0,-2.03125 0.1562,-6.17187 0.2344,-4.14063 0.2344,-6.17188 0,-14.6875 -7.3437,-14.6875 -9.9219,0 -17.7344,8.98438 -3.9844,4.60937 -10.9375,17.57812 0,29.76563 -2.5,35.23438 -2.1875,4.84375 -6.7969,4.84375 -3.2031,0 -5.625,-2.1875 -2.4219,-2.1875 -2.4219,-5.3125 0,-1.09375 0.7032,-3.4375 0.625,-1.95313 0.8593,-11.40625 l 0.2344,-11.5625 0.2344,-57.42188 q 0.5469,-9.6875 0.5469,-13.04687 0,-3.98438 -0.7813,-7.5 -0.7031,-3.59375 -0.7031,-7.42188 0,-3.28125 2.2656,-5.39062 2.2656,-2.1875 5.5469,-2.1875 6.4062,0 7.5,6.875 1.25,7.57812 1.25,13.67187 0,8.20313 -0.5469,17.10938 -0.4687,8.51562 -0.3906,17.10937 l 0.078,6.875 q 6.4063,-8.59375 13.6719,-12.8125 7.3437,-4.29687 15.5469,-4.29687 12.9687,0 17.8125,8.4375 3.4375,5.9375 3.9062,20 l 0.625,14.92187 1.5625,16.25 q 1.0938,9.14063 2.6563,16.09375 0.3125,1.32813 0.3125,2.26563 0,3.20312 -2.3438,5.3125 -2.3437,2.1875 -5.625,2.1875 z"
       style="font-style:normal;font-variant:normal;font-weight:normal;font-stretch:normal;font-size:160px;font-family:'Comic Sans MS';-inkscape-font-specification:'Comic Sans MS, Normal';font-variant-ligatures:normal;font-variant-caps:normal;font-variant-numeric:normal;font-feature-settings:normal;text-align:center;writing-mode:lr-tb;text-anchor:middle"
       id="path44" />
    <path
       d="m 1289.8613,365.3045 q -13.125,0 -22.5781,-9.6875 -10.5469,-10.78125 -11.0937,-28.98437 -0.4688,-17.65625 8.9062,-31.09375 10.9375,-15.85938 30.4688,-15.85938 15.625,0 23.6718,14.29688 6.4063,11.5625 6.1719,27.8125 -0.2344,17.34375 -9.0625,29.60937 -10,13.90625 -26.4844,13.90625 z m 4.6875,-69.76562 q -11.4843,-0.0781 -17.8906,10.9375 -5.0781,8.82812 -5.0781,20.15625 0,11.32812 6.1719,17.65625 5.1562,5.23437 12.1093,5.23437 8.125,0 13.9844,-5.9375 6.6406,-6.5625 7.0313,-17.73437 1.0937,-30.23438 -16.3282,-30.3125 z"
       style="font-style:normal;font-variant:normal;font-weight:normal;font-stretch:normal;font-size:160px;font-family:'Comic Sans MS';-inkscape-font-specification:'Comic Sans MS, Normal';font-variant-ligatures:normal;font-variant-caps:normal;font-variant-numeric:normal;font-feature-settings:normal;text-align:center;writing-mode:lr-tb;text-anchor:middle"
       id="path46" />
    <path
       d="m 1364.5488,299.28888 -1.1718,38.82812 q 0,6.17188 -0.625,18.125 -0.7813,7.8125 -7.6563,7.8125 -7.6562,0 -7.6562,-7.96875 0,-9.45312 0.8593,-28.35937 0.8594,-18.98438 0.8594,-28.4375 0,-12.34375 0.3906,-28.20313 0.3907,-15.9375 0.3907,-28.28125 0,-7.8125 7.6562,-7.8125 7.7344,0 7.7344,7.8125 0,12.34375 -0.3906,28.28125 -0.3907,15.85938 -0.3907,28.20313 z"
       style="font-style:normal;font-variant:normal;font-weight:normal;font-stretch:normal;font-size:160px;font-family:'Comic Sans MS';-inkscape-font-specification:'Comic Sans MS, Normal';font-variant-ligatures:normal;font-variant-caps:normal;font-variant-numeric:normal;font-feature-settings:normal;text-align:center;writing-mode:lr-tb;text-anchor:middle"
       id="path48" />
    <path
       d="m 1460.4863,291.71075 q -0.9375,11.48438 -0.9375,22.96875 0,26.01563 2.4219,39.29688 0.1563,1.09375 0.1563,1.79687 0,3.125 -2.1875,5.15625 -2.1875,2.03125 -5.0782,2.03125 -4.8437,0 -7.1093,-7.03125 -5.625,4.14063 -11.7188,6.25 -6.0156,2.10938 -12.5781,2.10938 -16.1719,0 -26.7969,-10.78125 -10.9375,-11.01563 -10.9375,-28.28125 0,-20.85938 11.0156,-33.4375 11.0938,-12.57813 28.75,-12.57813 9.0625,0 13.9844,2.8125 l 7.3438,5.39063 q 1.0937,-32.89063 2.5781,-44.29688 1.0156,-6.95312 7.1094,-6.95312 7.1093,0 7.1093,7.57812 0,10.85938 -3.125,47.96875 z m -34.6875,2.03125 q -13.125,0 -19.6875,7.8125 -6.5625,7.73438 -6.5625,23.35938 0,10.07812 7.1094,17.34375 7.1875,7.26562 16.7969,7.26562 6.5625,0 11.0937,-2.42187 2.6563,-1.40625 8.6719,-6.48438 1.1719,-1.01562 2.2656,-2.42187 l -0.2343,-13.51563 0.078,-9.0625 0.1562,-9.21875 q -2.9687,-6.32812 -7.8906,-9.45312 -4.9219,-3.20313 -11.7969,-3.20313 z"
       style="font-style:normal;font-variant:normal;font-weight:normal;font-stretch:normal;font-size:160px;font-family:'Comic Sans MS';-inkscape-font-specification:'Comic Sans MS, Normal';font-variant-ligatures:normal;font-variant-caps:normal;font-variant-numeric:normal;font-feature-settings:normal;text-align:center;writing-mode:lr-tb;text-anchor:middle"
       id="path50" />
    <path
       d="m 1519.002,364.28888 q -17.6563,0 -28.5938,-8.82813 -11.9531,-9.76562 -11.9531,-27.34375 0,-20.3125 9.8437,-34.0625 10.7032,-15 28.5938,-15 12.9687,0 21.1719,4.375 10.0781,5.39063 10.0781,16.5625 0,7.8125 -8.8281,14.21875 -3.9063,2.8125 -16.5625,8.75 l -29.8438,14.14063 q 4.375,6.48437 10.8594,9.76562 6.5625,3.28125 15.2344,3.28125 5.3906,0 12.6562,-2.03125 9.2188,-2.57812 11.875,-6.71875 2.6563,-4.21875 5.7031,-4.21875 2.7344,0 4.8438,2.10938 2.1875,2.03125 2.1875,4.76562 0,8.67188 -13.9844,14.92188 -11.9531,5.3125 -23.2812,5.3125 z m -2.1094,-71.17188 q -9.5313,0 -15.8594,7.42188 -6.3281,7.34375 -9.4531,22.1875 l 23.9844,-11.40625 q 14.1406,-6.875 20.1562,-11.95313 -6.7187,-6.25 -18.8281,-6.25 z"
       style="font-style:normal;font-variant:normal;font-weight:normal;font-stretch:normal;font-size:160px;font-family:'Comic Sans MS';-inkscape-font-specification:'Comic Sans MS, Normal';font-variant-ligatures:normal;font-variant-caps:normal;font-variant-numeric:normal;font-feature-settings:normal;text-align:center;writing-mode:lr-tb;text-anchor:middle"
       id="path52" />
    <path
       d="m 1630.9551,302.96075 q -0.5469,9.76563 -7.8125,9.76563 -6.7188,0 -6.7188,-7.73438 0,-1.48437 -0.2343,-5.46875 l -0.2344,-6.5625 q -12.3438,1.48438 -19.7656,6.95313 -6.9532,5.07812 -11.5625,15.3125 l 0.1562,42.8125 q 0,7.89062 -7.7344,7.89062 -6.875,0 -6.875,-7.89062 v -54.84375 q 0,-2.57813 0.1563,-7.73438 0.2344,-5.15625 0.2344,-7.73437 0,-7.89063 6.875,-7.89063 7.6562,0 7.7343,12.96875 15,-14.45312 33.2813,-14.45312 6.3281,0 9.4531,4.76562 3.125,4.76563 3.125,14.375 0,4.0625 -0.078,5.46875 z"
       style="font-style:normal;font-variant:normal;font-weight:normal;font-stretch:normal;font-size:160px;font-family:'Comic Sans MS';-inkscape-font-specification:'Comic Sans MS, Normal';font-variant-ligatures:normal;font-variant-caps:normal;font-variant-numeric:normal;font-feature-settings:normal;text-align:center;writing-mode:lr-tb;text-anchor:middle"
       id="path54" />
  </g>
</svg>
