<?xml version="1.0" encoding="UTF-8" standalone="no"?>
<svg
   xmlns:dc="http://purl.org/dc/elements/1.1/"
   xmlns:cc="http://creativecommons.org/ns#"
   xmlns:rdf="http://www.w3.org/1999/02/22-rdf-syntax-ns#"
   xmlns:svg="http://www.w3.org/2000/svg"
   xmlns="http://www.w3.org/2000/svg"
   xmlns:sodipodi="http://sodipodi.sourceforge.net/DTD/sodipodi-0.dtd"
   xmlns:inkscape="http://www.inkscape.org/namespaces/inkscape"
   aria-hidden="true"
   focusable="false"
   data-prefix="fas"
   data-icon="building"
   class="svg-inline--fa fa-building fa-w-14"
   role="img"
   viewBox="0 0 1500 1500"
   version="1.1"
   id="svg4"
   sodipodi:docname="project.svg"
   width="1500"
   height="1500"
   inkscape:version="0.92.4 5da689c313, 2019-01-14">
  <metadata
     id="metadata10">
    <rdf:RDF>
      <cc:Work
         rdf:about="">
        <dc:format>image/svg+xml</dc:format>
        <dc:type
           rdf:resource="http://purl.org/dc/dcmitype/StillImage" />
        <dc:title></dc:title>
      </cc:Work>
    </rdf:RDF>
  </metadata>
  <defs
     id="defs8" />
  <sodipodi:namedview
     pagecolor="#ffffff"
     bordercolor="#666666"
     borderopacity="1"
     objecttolerance="10"
     gridtolerance="10"
     guidetolerance="10"
     inkscape:pageopacity="0"
     inkscape:pageshadow="2"
     inkscape:window-width="1916"
     inkscape:window-height="1041"
     id="namedview6"
     showgrid="false"
     inkscape:zoom="0.091049383"
     inkscape:cx="4672.4681"
     inkscape:cy="988.80215"
     inkscape:window-x="1366"
     inkscape:window-y="18"
     inkscape:window-maximized="0"
     inkscape:current-layer="svg4" />
  <g
     aria-label="Project




Showcase




Placeholder"
     transform="matrix(0.7878188,0,0,0.7878188,-1378.3828,715.8399)"
     style="font-style:normal;font-variant:normal;font-weight:normal;font-stretch:normal;font-size:40px;line-height:125%;font-family:'DIN Alternate';-inkscape-font-specification:'DIN Alternate';font-variant-ligatures:normal;font-variant-caps:normal;font-variant-numeric:normal;font-feature-settings:normal;text-align:center;letter-spacing:0px;word-spacing:0px;writing-mode:lr-tb;text-anchor:middle;fill:#000000;fill-opacity:1;stroke:none;stroke-width:1.2693274px;stroke-linecap:butt;stroke-linejoin:miter;stroke-opacity:1"
     id="flowRoot12">
    <path
       d="m 2188.9193,129.79921 q -4.5573,0 -19.8568,-2.11589 -1.3021,24.57683 -1.3021,86.10026 0,6.51042 -4.2318,11.06771 -4.2317,4.39453 -10.5794,4.39453 -6.5104,0 -10.7422,-4.39453 -4.2318,-4.55729 -4.2318,-11.06771 v -47.85156 q 0,-23.92578 2.9297,-67.382814 3.2552,-47.037762 3.5808,-67.382815 V 8.7054533 q 0,-16.1132817 1.9531,-23.4375003 3.7435,-14.322918 15.9505,-12.369792 5.2083,-1.627605 14.8112,-2.441407 9.6029,-0.813802 23.6003,-0.813802 29.7851,0 55.8268,20.345053 28.6458,22.460938 28.6458,54.03646 0,40.364584 -30.5989,64.290365 -27.3438,21.48438 -65.7552,21.48438 z m 8.138,-129.23177779 q -7.1615,0 -12.8581,0.32552085 -5.5339,0.32552084 -9.4401,0.97656254 l -0.3255,29.9479174 -3.418,64.778648 17.9037,2.115885 q 27.3437,0 46.0612,-13.834635 20.5078,-15.13672 20.5078,-40.852866 0,-18.229167 -19.5313,-31.412762 -18.0664,-12.04427079 -38.8997,-12.04427079 z"
       style="font-style:normal;font-variant:normal;font-weight:normal;font-stretch:normal;font-size:333.33334351px;font-family:'Comic Sans MS';-inkscape-font-specification:'Comic Sans MS, Normal';font-variant-ligatures:normal;font-variant-caps:normal;font-variant-numeric:normal;font-feature-settings:normal;text-align:center;writing-mode:lr-tb;text-anchor:middle;stroke-width:1.2693274px"
       id="path405" />
    <path
       d="m 2444.4531,105.05962 q -1.1393,20.34506 -16.276,20.34506 -13.9974,0 -13.9974,-16.11329 0,-3.09244 -0.4883,-11.393226 l -0.4883,-13.671875 q -25.7161,3.092448 -41.1784,14.485677 -14.4856,10.579424 -24.0885,31.901044 l 0.3255,89.19271 q 0,16.4388 -16.1133,16.4388 -14.3229,0 -14.3229,-16.4388 V 105.5479 q 0,-5.37109 0.3255,-16.113278 0.4883,-10.742187 0.4883,-16.113281 0,-16.438803 14.3229,-16.438803 15.9505,0 16.1133,27.01823 31.25,-30.110678 69.3359,-30.110678 13.1836,0 19.6941,9.928386 6.5104,9.928386 6.5104,29.947917 0,8.463547 -0.1628,11.393227 z"
       style="font-style:normal;font-variant:normal;font-weight:normal;font-stretch:normal;font-size:333.33334351px;font-family:'Comic Sans MS';-inkscape-font-specification:'Comic Sans MS, Normal';font-variant-ligatures:normal;font-variant-caps:normal;font-variant-numeric:normal;font-feature-settings:normal;text-align:center;writing-mode:lr-tb;text-anchor:middle;stroke-width:1.2693274px"
       id="path407" />
    <path
       d="m 2539.0169,234.94244 q -27.3437,0 -47.0377,-20.18229 -21.9727,-22.46094 -23.112,-60.38412 -0.9766,-36.78385 18.5547,-64.778647 22.7864,-33.040366 63.4765,-33.040366 32.5521,0 49.3165,29.785157 13.3463,24.088546 12.858,57.942706 -0.4883,36.13282 -18.8802,61.6862 -20.8333,28.97136 -55.1758,28.97136 z m 9.7657,-145.345057 q -23.9258,-0.162761 -37.2722,22.786457 -10.5794,18.39193 -10.5794,41.99219 0,23.60026 12.8581,36.78386 10.7422,10.90494 25.2278,10.90494 16.9271,0 29.1341,-12.36979 13.8347,-13.67187 14.6485,-36.94661 2.2786,-62.988287 -34.0169,-63.151047 z"
       style="font-style:normal;font-variant:normal;font-weight:normal;font-stretch:normal;font-size:333.33334351px;font-family:'Comic Sans MS';-inkscape-font-specification:'Comic Sans MS, Normal';font-variant-ligatures:normal;font-variant-caps:normal;font-variant-numeric:normal;font-feature-settings:normal;text-align:center;writing-mode:lr-tb;text-anchor:middle;stroke-width:1.2693274px"
       id="path409" />
    <path
       d="m 2706.6602,19.447641 q -7.8125,0 -13.5092,-5.533854 -5.5338,-5.5338545 -5.5338,-13.18359437 0,-7.81250023 5.5338,-13.34635463 5.6967,-5.533854 13.5092,-5.533854 7.8125,0 13.5091,5.533854 5.6966,5.5338544 5.6966,13.34635463 0,7.64973987 -5.6966,13.18359437 -5.6966,5.533854 -13.5091,5.533854 z m -1.3021,243.652349 q 0.1627,-19.04297 -5.5339,-97.49349 l -5.5338,-89.680993 q 0,-8.138021 4.5573,-14.485677 4.72,-6.347657 11.8815,-6.347657 5.5338,0 11.0677,4.069011 5.5338,4.069011 5.8594,8.300782 l 5.371,93.750004 4.3946,100.26042 q 0,22.6237 -13.5091,41.01562 -14.6485,20.01954 -35.6446,20.01954 -34.9935,0 -58.5937,-53.8737 -1.9531,-4.39453 -1.9531,-7.8125 0,-6.51042 5.0455,-11.23047 5.2084,-4.72005 11.7188,-4.72005 9.6028,0 20.0195,21.15885 2.6042,5.53385 9.1146,15.95052 6.3477,8.13802 14.6484,8.13802 7.1615,0 12.2071,-10.74219 3.9062,-8.13802 4.8828,-16.27604 z"
       style="font-style:normal;font-variant:normal;font-weight:normal;font-stretch:normal;font-size:333.33334351px;font-family:'Comic Sans MS';-inkscape-font-specification:'Comic Sans MS, Normal';font-variant-ligatures:normal;font-variant-caps:normal;font-variant-numeric:normal;font-feature-settings:normal;text-align:center;writing-mode:lr-tb;text-anchor:middle;stroke-width:1.2693274px"
       id="path411" />
    <path
       d="m 2863.724,232.82655 q -36.7839,0 -59.5703,-18.39192 -24.9024,-20.34506 -24.9024,-56.96615 0,-42.31771 20.5078,-70.963545 22.2982,-31.250001 59.5704,-31.250001 27.0182,0 44.108,9.114583 20.9961,11.23047 20.9961,34.50521 0,16.276043 -18.3919,29.622393 -8.138,5.85938 -34.5052,18.22917 l -62.1745,29.45964 q 9.1146,13.50911 22.6237,20.34505 13.6719,6.83594 31.7383,6.83594 11.2305,0 26.3672,-4.23177 19.2057,-5.3711 24.7396,-13.9974 5.5338,-8.78906 11.8815,-8.78906 5.6966,0 10.0911,4.39453 4.5573,4.23177 4.5573,9.92838 0,18.06641 -29.1341,31.08725 -24.9024,11.0677 -48.5026,11.0677 z m -4.3945,-148.27474 q -19.8568,0 -33.0404,15.46224 -13.1836,15.29948 -19.694,46.22396 l 49.9674,-23.76302 q 29.4597,-14.32292 41.9922,-24.902346 -13.9974,-13.020834 -39.2252,-13.020834 z"
       style="font-style:normal;font-variant:normal;font-weight:normal;font-stretch:normal;font-size:333.33334351px;font-family:'Comic Sans MS';-inkscape-font-specification:'Comic Sans MS, Normal';font-variant-ligatures:normal;font-variant-caps:normal;font-variant-numeric:normal;font-feature-settings:normal;text-align:center;writing-mode:lr-tb;text-anchor:middle;stroke-width:1.2693274px"
       id="path413" />
    <path
       d="m 3043.8998,235.59348 q -33.3659,0 -55.6641,-20.18229 -23.4375,-21.15886 -23.4375,-55.82683 0,-33.04036 21.9727,-68.196613 24.414,-39.062501 55.013,-39.062501 15.9505,0 35.6445,7.48698 24.9024,9.602865 24.9024,23.4375 0,6.184896 -4.0691,11.067709 -4.069,4.720052 -10.0911,4.720052 -4.7201,0 -8.3008,-2.766927 -3.418,-2.929687 -6.6732,-5.696615 -9.6028,-7.649739 -31.4127,-7.649739 -16.6016,0 -32.8776,29.622394 -14.8112,27.18099 -14.8112,47.03776 0,21.48438 14.6484,33.85417 13.6719,11.55599 35.1563,11.55599 9.7656,0 20.8333,-5.20833 l 18.8802,-10.09115 q 4.8828,-2.60416 6.9987,-2.60416 6.0221,0 10.4167,4.88281 4.3945,4.72005 4.3945,10.90495 0,11.88151 -25.0651,22.94922 -21.9727,9.76562 -36.4583,9.76562 z"
       style="font-style:normal;font-variant:normal;font-weight:normal;font-stretch:normal;font-size:333.33334351px;font-family:'Comic Sans MS';-inkscape-font-specification:'Comic Sans MS, Normal';font-variant-ligatures:normal;font-variant-caps:normal;font-variant-numeric:normal;font-feature-settings:normal;text-align:center;writing-mode:lr-tb;text-anchor:middle;stroke-width:1.2693274px"
       id="path415" />
    <path
       d="m 3250.4427,86.667695 q -3.418,0 -8.138,-0.325521 -4.5573,-0.32552 -7.9753,-0.32552 -3.7435,0 -22.1354,2.441406 l 3.0925,96.19141 0.1627,7.16146 0.1628,8.30078 q 0.651,35.64453 -17.0899,35.64453 -6.5104,0 -11.3932,-4.23177 -4.72,-4.23177 -4.72,-10.57943 0,-6.18489 0.4882,-18.55468 0.4883,-12.3698 0.4883,-18.55469 l -3.2552,-95.052089 q -11.8815,-0.488282 -36.1328,-2.766927 -14.4857,-1.953125 -14.4857,-16.113282 0,-7.161459 4.3946,-11.881511 4.3945,-4.720052 11.2304,-4.720052 l 34.1797,2.766927 q 0,-8.300782 -0.8138,-22.135417 -0.651,-13.997397 -0.651,-20.182293 0,-6.8359373 4.72,-11.2304687 4.7201,-4.5572918 11.556,-4.5572918 14.6484,0 17.0899,23.9257815 0.4882,6.022136 0.4882,14.485678 l -0.3255,9.440104 -0.1627,10.091147 q 20.1822,-2.604167 23.1119,-2.604167 16.9271,0 22.1355,1.627604 9.9283,3.255208 9.9283,15.29948 0,7.161458 -4.5573,11.88151 -4.3945,4.557292 -11.3932,4.557292 z"
       style="font-style:normal;font-variant:normal;font-weight:normal;font-stretch:normal;font-size:333.33334351px;font-family:'Comic Sans MS';-inkscape-font-specification:'Comic Sans MS, Normal';font-variant-ligatures:normal;font-variant-caps:normal;font-variant-numeric:normal;font-feature-settings:normal;text-align:center;writing-mode:lr-tb;text-anchor:middle;stroke-width:1.2693274px"
       id="path417" />
    <path
       d="m 1963.8216,500.90155 q -0.1628,-6.83593 4.5573,-11.0677 4.8828,-4.39454 11.8815,-4.39454 7.9753,0 13.9974,9.11459 8.3008,12.36979 14.8112,16.76432 13.8346,9.11459 40.2018,9.11459 25.2279,0 46.875,-10.90495 27.6693,-13.9974 27.6693,-38.89974 0,-20.50782 -23.2748,-32.38933 -19.694,-10.2539 -48.6653,-11.06771 -25.7162,-0.97656 -43.7826,-11.23047 -23.112,-13.18359 -23.112,-37.76041 0,-28.97136 32.8777,-52.89714 31.4127,-22.6237 64.9414,-22.6237 15.7877,0 35.6445,5.37109 26.3672,6.9987 26.3672,17.90365 0,14.32292 -14.6485,14.32292 -6.5104,0 -22.7864,-3.41797 -16.2761,-3.58073 -25.2279,-3.41797 -25.3906,0.32552 -43.1315,12.53255 -18.2292,12.53256 -18.2292,30.4362 0,13.50912 24.0886,19.04297 8.9518,2.11589 34.668,3.90625 37.2721,2.76693 58.2682,23.4375 19.2057,18.88021 19.2057,46.0612 0,38.73698 -35.8073,61.84896 -31.0872,20.01953 -72.1028,20.01953 -29.7852,0 -54.5248,-11.39323 -30.2734,-13.99739 -30.7617,-38.41146 z"
       style="font-style:normal;font-variant:normal;font-weight:normal;font-stretch:normal;font-size:333.33334351px;font-family:'Comic Sans MS';-inkscape-font-specification:'Comic Sans MS, Normal';font-variant-ligatures:normal;font-variant-caps:normal;font-variant-numeric:normal;font-feature-settings:normal;text-align:center;writing-mode:lr-tb;text-anchor:middle;stroke-width:1.2693274px"
       id="path419" />
    <path
       d="m 2331.9857,551.52005 q -11.556,0 -15.1368,-12.3698 -3.7434,-13.34635 -6.8359,-37.92317 -2.9297,-23.60027 -2.9297,-38.73699 0,-4.23177 0.3255,-12.85807 0.4883,-8.6263 0.4883,-12.85807 0,-30.59896 -15.2995,-30.59896 -20.6705,0 -36.9466,18.71745 -8.3008,9.60286 -22.7864,36.62109 0,62.01172 -5.2084,73.40495 -4.5573,10.09115 -14.1601,10.09115 -6.6732,0 -11.7188,-4.55729 -5.0455,-4.55729 -5.0455,-11.06771 0,-2.27865 1.4648,-7.16146 1.3021,-4.06901 1.7904,-23.76302 l 0.4882,-24.08854 0.4883,-119.62891 q 1.1393,-20.1823 1.1393,-27.18099 0,-8.30079 -1.6276,-15.62501 -1.4648,-7.48697 -1.4648,-15.46224 0,-6.83593 4.7201,-11.23046 4.72,-4.5573 11.5559,-4.5573 13.3464,0 15.625,14.32292 2.6042,15.78776 2.6042,28.48307 0,17.08985 -1.1393,35.64454 -0.9766,17.74088 -0.8138,35.64453 l 0.1627,14.32292 q 13.3464,-17.90365 28.4831,-26.69271 15.2995,-8.95183 32.3893,-8.95183 27.0183,0 37.1094,17.57813 7.1615,12.36979 8.138,41.66667 l 1.3021,31.08724 3.2552,33.85417 q 2.2787,19.04297 5.5339,33.52864 0.651,2.76693 0.651,4.72006 0,6.67317 -4.8828,11.0677 -4.8828,4.5573 -11.7187,4.5573 z"
       style="font-style:normal;font-variant:normal;font-weight:normal;font-stretch:normal;font-size:333.33334351px;font-family:'Comic Sans MS';-inkscape-font-specification:'Comic Sans MS, Normal';font-variant-ligatures:normal;font-variant-caps:normal;font-variant-numeric:normal;font-feature-settings:normal;text-align:center;writing-mode:lr-tb;text-anchor:middle;stroke-width:1.2693274px"
       id="path421" />
    <path
       d="m 2449.3359,551.03176 q -27.3437,0 -47.0377,-20.18229 -21.9727,-22.46094 -23.112,-60.38411 -0.9766,-36.78386 18.5547,-64.77865 22.7864,-33.04037 63.4765,-33.04037 32.5521,0 49.3164,29.78516 13.3464,24.08854 12.8581,57.94271 -0.4883,36.13281 -18.8802,61.6862 -20.8333,28.97135 -55.1758,28.97135 z m 9.7657,-145.34505 q -23.9258,-0.16276 -37.2722,22.78646 -10.5794,18.39192 -10.5794,41.99219 0,23.60026 12.8581,36.78385 10.7421,10.90495 25.2278,10.90495 16.9271,0 29.1341,-12.36979 13.8347,-13.67188 14.6485,-36.94662 2.2786,-62.98828 -34.0169,-63.15104 z"
       style="font-style:normal;font-variant:normal;font-weight:normal;font-stretch:normal;font-size:333.33334351px;font-family:'Comic Sans MS';-inkscape-font-specification:'Comic Sans MS, Normal';font-variant-ligatures:normal;font-variant-caps:normal;font-variant-numeric:normal;font-feature-settings:normal;text-align:center;writing-mode:lr-tb;text-anchor:middle;stroke-width:1.2693274px"
       id="path423" />
    <path
       d="m 2758.418,395.75832 q -12.6953,53.0599 -33.2031,119.95443 -4.5573,14.8112 -15.1368,30.4362 -5.6966,8.6263 -15.4622,8.46354 -17.7409,-0.32552 -27.6693,-44.10807 -3.2552,-13.9974 -6.6731,-38.08594 l -5.3711,-36.29557 -13.3464,31.08724 -24.7396,67.22005 q -2.1159,6.1849 -6.1849,9.44011 -4.8828,9.4401 -15.625,9.76562 -12.3698,0.48828 -23.9258,-48.5026 -5.8593,-25.22787 -11.7187,-68.35938 l -3.9063,-24.41406 q -2.1158,-14.64844 -2.1158,-24.57683 0,-6.83594 4.72,-11.23047 4.8828,-4.55729 11.7188,-4.55729 12.3698,0 15.2994,13.50912 2.1159,9.60286 3.418,23.76302 l 2.4414,23.92578 9.6029,73.07943 q 18.0664,-50.13021 37.4349,-115.5599 5.3711,-18.06641 18.7174,-18.06641 12.8581,0 17.4154,20.18229 4.2318,19.04297 10.5794,58.59376 6.5104,41.01562 11.556,63.96484 l 11.8815,-44.27083 20.9961,-88.70443 q 2.4414,-9.92839 13.9974,-9.92839 6.836,0 11.8815,4.72005 5.0456,4.5573 5.0456,11.06771 0,0.8138 -1.6276,7.48698 z"
       style="font-style:normal;font-variant:normal;font-weight:normal;font-stretch:normal;font-size:333.33334351px;font-family:'Comic Sans MS';-inkscape-font-specification:'Comic Sans MS, Normal';font-variant-ligatures:normal;font-variant-caps:normal;font-variant-numeric:normal;font-feature-settings:normal;text-align:center;writing-mode:lr-tb;text-anchor:middle;stroke-width:1.2693274px"
       id="path425" />
    <path
       d="m 2865.1888,551.68281 q -33.3659,0 -55.664,-20.1823 -23.4375,-21.15885 -23.4375,-55.82682 0,-33.04037 21.9726,-68.19662 24.4141,-39.0625 55.013,-39.0625 15.9506,0 35.6446,7.48698 24.9023,9.60287 24.9023,23.4375 0,6.1849 -4.069,11.06771 -4.069,4.72005 -10.0911,4.72005 -4.7201,0 -8.3008,-2.76692 -3.418,-2.92969 -6.6732,-5.69662 -9.6029,-7.64974 -31.4128,-7.64974 -16.6015,0 -32.8776,29.6224 -14.8112,27.18099 -14.8112,47.03776 0,21.48437 14.6485,33.85417 13.6718,11.55599 35.1562,11.55599 9.7656,0 20.8334,-5.20834 l 18.8802,-10.09114 q 4.8828,-2.60417 6.9987,-2.60417 6.0221,0 10.4166,4.88281 4.3946,4.72006 4.3946,10.90495 0,11.88151 -25.0651,22.94922 -21.9727,9.76563 -36.4584,9.76563 z"
       style="font-style:normal;font-variant:normal;font-weight:normal;font-stretch:normal;font-size:333.33334351px;font-family:'Comic Sans MS';-inkscape-font-specification:'Comic Sans MS, Normal';font-variant-ligatures:normal;font-variant-caps:normal;font-variant-numeric:normal;font-feature-settings:normal;text-align:center;writing-mode:lr-tb;text-anchor:middle;stroke-width:1.2693274px"
       id="path427" />
    <path
       d="m 3089.9609,552.17109 q -3.0924,0 -11.2304,-7.16146 -7.3242,-6.67318 -10.905,-11.88151 -15.625,8.46354 -27.5065,12.69531 -11.8815,4.39453 -19.8568,4.39453 -38.0859,0 -55.5013,-21.48437 -16.4388,-20.1823 -16.4388,-61.84896 0,-39.38803 27.0183,-67.38282 27.181,-27.99479 64.7786,-27.99479 14.1602,0 31.7383,7.32422 22.1354,9.11458 22.1354,21.97266 0,4.39453 -3.2552,7.8125 -1.6276,6.18489 -2.6042,20.34505 -0.8138,14.16015 -0.9765,36.29557 -0.1628,20.18229 2.7669,31.90104 1.6276,7.16146 10.2539,28.64584 1.1393,2.92969 3.7435,8.6263 l 0.9766,2.76693 q 0,6.51042 -4.5573,10.74219 -4.5573,4.23177 -10.5795,4.23177 z m -33.8541,-113.1185 q 0,-6.99869 0.8138,-15.13671 0.9765,-8.30079 2.7669,-17.57813 -6.0221,-3.09245 -10.4167,-4.55729 -4.2317,-1.46485 -6.8359,-1.46485 -25.2279,0 -43.6198,20.67058 -18.2292,20.50781 -18.2292,47.36328 0,26.69271 9.4401,40.03906 9.4401,13.34636 28.3204,13.34636 15.625,0 26.5299,-5.69662 5.8594,-3.09244 16.4388,-12.36979 -5.2083,-43.13151 -5.2083,-64.61589 z"
       style="font-style:normal;font-variant:normal;font-weight:normal;font-stretch:normal;font-size:333.33334351px;font-family:'Comic Sans MS';-inkscape-font-specification:'Comic Sans MS, Normal';font-variant-ligatures:normal;font-variant-caps:normal;font-variant-numeric:normal;font-feature-settings:normal;text-align:center;writing-mode:lr-tb;text-anchor:middle;stroke-width:1.2693274px"
       id="path429" />
    <path
       d="m 3243.2813,416.10337 q -8.9519,0 -12.5326,-6.02213 -2.4414,-4.23177 -4.2318,-17.57813 -12.207,3.09245 -37.5976,11.39323 -26.2044,10.41667 -26.3672,25.71615 4.8828,1.79036 9.6029,2.60417 37.4349,6.67317 55.664,18.39192 26.53,17.08985 26.53,49.47917 0,26.52995 -22.9492,40.03907 -19.043,11.0677 -48.1771,11.0677 -21.3216,0 -40.6901,-7.16145 -25.0651,-9.11459 -25.0651,-25.39063 0,-6.51042 5.0455,-11.39323 5.2084,-4.88281 11.7188,-4.88281 5.0456,0 13.0208,7.8125 3.9063,3.74349 17.5781,6.18489 10.905,1.95313 18.392,1.95313 13.6719,0 24.0885,-3.25521 15.1367,-4.72005 15.1367,-14.97396 0,-22.13541 -30.9244,-29.94792 l -16.9271,-3.74348 q -21.6472,-4.72006 -30.7617,-11.06771 -13.1836,-9.11459 -13.1836,-27.50651 0,-34.01693 32.0638,-48.50261 9.7656,-4.39453 31.25,-10.41667 21.4843,-6.18489 30.7617,-10.41666 6.6732,-2.92969 14.4857,-2.92969 6.9987,0 11.3932,4.55729 4.5573,4.55729 4.5573,11.88151 0,4.72005 1.9531,13.83464 2.1159,9.11458 2.1159,13.83463 0,7.32422 -4.5573,11.88151 -4.3945,4.55729 -11.3932,4.55729 z"
       style="font-style:normal;font-variant:normal;font-weight:normal;font-stretch:normal;font-size:333.33334351px;font-family:'Comic Sans MS';-inkscape-font-specification:'Comic Sans MS, Normal';font-variant-ligatures:normal;font-variant-caps:normal;font-variant-numeric:normal;font-feature-settings:normal;text-align:center;writing-mode:lr-tb;text-anchor:middle;stroke-width:1.2693274px"
       id="path431" />
    <path
       d="m 3371.6992,548.91588 q -36.7839,0 -59.5703,-18.39193 -24.9024,-20.34505 -24.9024,-56.96615 0,-42.31771 20.5079,-70.96354 22.2981,-31.25 59.5703,-31.25 27.0182,0 44.108,9.11458 20.9961,11.23047 20.9961,34.50521 0,16.27604 -18.3919,29.6224 -8.138,5.85937 -34.5052,18.22917 l -62.1745,29.45963 q 9.1146,13.50912 22.6237,20.34505 13.6719,6.83594 31.7383,6.83594 11.2305,0 26.3672,-4.23177 19.2057,-5.37109 24.7396,-13.99739 5.5338,-8.78907 11.8815,-8.78907 5.6966,0 10.0911,4.39453 4.5573,4.23177 4.5573,9.92839 0,18.06641 -29.1341,31.08724 -24.9023,11.06771 -48.5026,11.06771 z m -4.3945,-148.27475 q -19.8568,0 -33.0404,15.46224 -13.1836,15.29948 -19.694,46.22396 l 49.9674,-23.76302 q 29.4597,-14.32291 41.9922,-24.90234 -13.9974,-13.02084 -39.2252,-13.02084 z"
       style="font-style:normal;font-variant:normal;font-weight:normal;font-stretch:normal;font-size:333.33334351px;font-family:'Comic Sans MS';-inkscape-font-specification:'Comic Sans MS, Normal';font-variant-ligatures:normal;font-variant-caps:normal;font-variant-numeric:normal;font-feature-settings:normal;text-align:center;writing-mode:lr-tb;text-anchor:middle;stroke-width:1.2693274px"
       id="path433" />
    <path
       d="m 1872.5944,761.97786 q -4.5573,0 -19.8568,-2.11589 -1.3021,24.57683 -1.3021,86.10026 0,6.51042 -4.2317,11.06771 -4.2318,4.39453 -10.5795,4.39453 -6.5104,0 -10.7422,-4.39453 -4.2317,-4.55729 -4.2317,-11.06771 v -47.85156 q 0,-23.92578 2.9297,-67.38281 3.2552,-47.03777 3.5807,-67.38282 V 640.8841 q 0,-16.11328 1.9531,-23.4375 3.7435,-14.32291 15.9505,-12.36979 5.2084,-1.6276 14.8112,-2.44141 9.6029,-0.8138 23.6003,-0.8138 29.7851,0 55.8268,20.34505 28.6458,22.46094 28.6458,54.03646 0,40.36459 -30.5989,64.29037 -27.3438,21.48438 -65.7552,21.48438 z m 8.138,-129.23178 q -7.1615,0 -12.8581,0.32552 -5.5338,0.32552 -9.4401,0.97657 l -0.3255,29.94791 -3.418,64.77865 17.9037,2.11589 q 27.3437,0 46.0612,-13.83464 20.5078,-15.13672 20.5078,-40.85287 0,-18.22916 -19.5313,-31.41276 -18.0664,-12.04427 -38.8997,-12.04427 z"
       style="font-style:normal;font-variant:normal;font-weight:normal;font-stretch:normal;font-size:333.33334351px;font-family:'Comic Sans MS';-inkscape-font-specification:'Comic Sans MS, Normal';font-variant-ligatures:normal;font-variant-caps:normal;font-variant-numeric:normal;font-feature-settings:normal;text-align:center;writing-mode:lr-tb;text-anchor:middle;stroke-width:1.2693274px"
       id="path435" />
    <path
       d="m 2042.8418,729.58853 -2.4414,80.89193 q 0,12.85808 -1.3021,37.76042 -1.6276,16.27604 -15.9505,16.27604 -15.9506,0 -15.9506,-16.60156 0,-19.69401 1.7904,-59.08203 1.7904,-39.55079 1.7904,-59.2448 0,-25.71614 0.8138,-58.75651 0.8138,-33.20313 0.8138,-58.91927 0,-16.27604 15.9505,-16.27604 16.1133,0 16.1133,16.27604 0,25.71614 -0.8138,58.91927 -0.8138,33.04037 -0.8138,58.75651 z"
       style="font-style:normal;font-variant:normal;font-weight:normal;font-stretch:normal;font-size:333.33334351px;font-family:'Comic Sans MS';-inkscape-font-specification:'Comic Sans MS, Normal';font-variant-ligatures:normal;font-variant-caps:normal;font-variant-numeric:normal;font-feature-settings:normal;text-align:center;writing-mode:lr-tb;text-anchor:middle;stroke-width:1.2693274px"
       id="path437" />
    <path
       d="m 2219.9251,868.26041 q -3.0924,0 -11.2304,-7.16146 -7.3243,-6.67317 -10.905,-11.88151 -15.625,8.46354 -27.5065,12.69532 -11.8815,4.39453 -19.8568,4.39453 -38.0859,0 -55.5013,-21.48438 -16.4388,-20.18229 -16.4388,-61.84896 0,-39.38802 27.0183,-67.38281 27.1809,-27.9948 64.7786,-27.9948 14.1602,0 31.7383,7.32422 22.1354,9.11459 22.1354,21.97266 0,4.39453 -3.2552,7.8125 -1.6276,6.1849 -2.6042,20.34505 -0.8138,14.16016 -0.9765,36.29558 -0.1628,20.18229 2.7669,31.90104 1.6276,7.16146 10.2539,28.64583 1.1393,2.92969 3.7435,8.62631 l 0.9765,2.76692 q 0,6.51042 -4.5572,10.74219 -4.5573,4.23177 -10.5795,4.23177 z M 2186.071,755.14192 q 0,-6.9987 0.8138,-15.13672 0.9765,-8.30078 2.7669,-17.57813 -6.0221,-3.09244 -10.4167,-4.55729 -4.2317,-1.46484 -6.8359,-1.46484 -25.2279,0 -43.6198,20.67057 -18.2292,20.50782 -18.2292,47.36329 0,26.6927 9.4401,40.03906 9.4401,13.34635 28.3203,13.34635 15.625,0 26.53,-5.69661 5.8594,-3.09245 16.4388,-12.36979 -5.2083,-43.13152 -5.2083,-64.61589 z"
       style="font-style:normal;font-variant:normal;font-weight:normal;font-stretch:normal;font-size:333.33334351px;font-family:'Comic Sans MS';-inkscape-font-specification:'Comic Sans MS, Normal';font-variant-ligatures:normal;font-variant-caps:normal;font-variant-numeric:normal;font-feature-settings:normal;text-align:center;writing-mode:lr-tb;text-anchor:middle;stroke-width:1.2693274px"
       id="path439" />
    <path
       d="m 2336.9499,867.77213 q -33.3659,0 -55.6641,-20.18229 -23.4375,-21.15886 -23.4375,-55.82683 0,-33.04036 21.9726,-68.19661 24.4141,-39.0625 55.0131,-39.0625 15.9505,0 35.6445,7.48698 24.9023,9.60286 24.9023,23.4375 0,6.18489 -4.069,11.0677 -4.069,4.72006 -10.0911,4.72006 -4.7201,0 -8.3008,-2.76693 -3.418,-2.92969 -6.6732,-5.69661 -9.6028,-7.64974 -31.4127,-7.64974 -16.6016,0 -32.8776,29.62239 -14.8112,27.18099 -14.8112,47.03776 0,21.48438 14.6484,33.85417 13.6719,11.55599 35.1563,11.55599 9.7656,0 20.8333,-5.20833 l 18.8802,-10.09115 q 4.8828,-2.60416 6.9987,-2.60416 6.0221,0 10.4167,4.88281 4.3945,4.72005 4.3945,10.90495 0,11.88151 -25.0651,22.94922 -21.9727,9.76562 -36.4583,9.76562 z"
       style="font-style:normal;font-variant:normal;font-weight:normal;font-stretch:normal;font-size:333.33334351px;font-family:'Comic Sans MS';-inkscape-font-specification:'Comic Sans MS, Normal';font-variant-ligatures:normal;font-variant-caps:normal;font-variant-numeric:normal;font-feature-settings:normal;text-align:center;writing-mode:lr-tb;text-anchor:middle;stroke-width:1.2693274px"
       id="path441" />
    <path
       d="m 2510.6152,865.0052 q -36.7838,0 -59.5703,-18.39192 -24.9023,-20.34506 -24.9023,-56.96615 0,-42.31771 20.5078,-70.96355 22.2982,-31.25 59.5703,-31.25 27.0182,0 44.1081,9.11459 20.9961,11.23047 20.9961,34.50521 0,16.27604 -18.392,29.62239 -8.138,5.85938 -34.5052,18.22917 l -62.1745,29.45964 q 9.1146,13.50911 22.6237,20.34505 13.6719,6.83594 31.7383,6.83594 11.2305,0 26.3672,-4.23177 19.2057,-5.3711 24.7396,-13.9974 5.5339,-8.78906 11.8815,-8.78906 5.6966,0 10.0912,4.39453 4.5573,4.23177 4.5573,9.92838 0,18.06641 -29.1342,31.08725 -24.9023,11.0677 -48.5026,11.0677 z m -4.3945,-148.27474 q -19.8568,0 -33.0404,15.46224 -13.1836,15.29948 -19.694,46.22396 l 49.9675,-23.76302 q 29.4596,-14.32292 41.9922,-24.90235 -13.9974,-13.02083 -39.2253,-13.02083 z"
       style="font-style:normal;font-variant:normal;font-weight:normal;font-stretch:normal;font-size:333.33334351px;font-family:'Comic Sans MS';-inkscape-font-specification:'Comic Sans MS, Normal';font-variant-ligatures:normal;font-variant-caps:normal;font-variant-numeric:normal;font-feature-settings:normal;text-align:center;writing-mode:lr-tb;text-anchor:middle;stroke-width:1.2693274px"
       id="path443" />
    <path
       d="m 2753.4538,867.60937 q -11.556,0 -15.1367,-12.36979 -3.7435,-13.34636 -6.836,-37.92318 -2.9297,-23.60026 -2.9297,-38.73698 0,-4.23177 0.3256,-12.85807 0.4882,-8.62631 0.4882,-12.85808 0,-30.59896 -15.2994,-30.59896 -20.6706,0 -36.9467,18.71745 -8.3007,9.60287 -22.7864,36.6211 0,62.01172 -5.2084,73.40495 -4.5572,10.09114 -14.1601,10.09114 -6.6732,0 -11.7188,-4.55729 -5.0455,-4.55729 -5.0455,-11.06771 0,-2.27864 1.4648,-7.16146 1.3021,-4.06901 1.7904,-23.76302 l 0.4883,-24.08854 0.4882,-119.62891 q 1.1394,-20.18229 1.1394,-27.18099 0,-8.30078 -1.6276,-15.625 -1.4649,-7.48698 -1.4649,-15.46224 0,-6.83594 4.7201,-11.23047 4.72,-4.55729 11.556,-4.55729 13.3463,0 15.625,14.32292 2.6041,15.78776 2.6041,28.48307 0,17.08984 -1.1393,35.64453 -0.9766,17.74089 -0.8138,35.64453 l 0.1628,14.32292 q 13.3463,-17.90364 28.483,-26.69271 15.2995,-8.95182 32.3894,-8.95182 27.0182,0 37.1093,17.57812 7.1615,12.3698 8.138,41.66667 l 1.3021,31.08724 3.2552,33.85417 q 2.2787,19.04297 5.5339,33.52865 0.651,2.76692 0.651,4.72005 0,6.67318 -4.8828,11.06771 -4.8828,4.55729 -11.7187,4.55729 z"
       style="font-style:normal;font-variant:normal;font-weight:normal;font-stretch:normal;font-size:333.33334351px;font-family:'Comic Sans MS';-inkscape-font-specification:'Comic Sans MS, Normal';font-variant-ligatures:normal;font-variant-caps:normal;font-variant-numeric:normal;font-feature-settings:normal;text-align:center;writing-mode:lr-tb;text-anchor:middle;stroke-width:1.2693274px"
       id="path445" />
    <path
       d="m 2870.8041,867.12109 q -27.3438,0 -47.0378,-20.18229 -21.9727,-22.46094 -23.112,-60.38412 -0.9766,-36.78385 18.5547,-64.77865 22.7865,-33.04036 63.4766,-33.04036 32.552,0 49.3164,29.78515 13.3463,24.08855 12.858,57.94271 -0.4882,36.13282 -18.8802,61.6862 -20.8333,28.97136 -55.1757,28.97136 z m 9.7656,-145.34506 q -23.9258,-0.16276 -37.2722,22.78646 -10.5794,18.39193 -10.5794,41.99219 0,23.60026 12.8581,36.78386 10.7422,10.90494 25.2279,10.90494 16.927,0 29.1341,-12.36979 13.8346,-13.67187 14.6484,-36.94661 2.2787,-62.98829 -34.0169,-63.15105 z"
       style="font-style:normal;font-variant:normal;font-weight:normal;font-stretch:normal;font-size:333.33334351px;font-family:'Comic Sans MS';-inkscape-font-specification:'Comic Sans MS, Normal';font-variant-ligatures:normal;font-variant-caps:normal;font-variant-numeric:normal;font-feature-settings:normal;text-align:center;writing-mode:lr-tb;text-anchor:middle;stroke-width:1.2693274px"
       id="path447" />
    <path
       d="m 3026.403,729.58853 -2.4414,80.89193 q 0,12.85808 -1.3021,37.76042 -1.6276,16.27604 -15.9505,16.27604 -15.9505,0 -15.9505,-16.60156 0,-19.69401 1.7903,-59.08203 1.7904,-39.55079 1.7904,-59.2448 0,-25.71614 0.8138,-58.75651 0.8138,-33.20313 0.8138,-58.91927 0,-16.27604 15.9505,-16.27604 16.1133,0 16.1133,16.27604 0,25.71614 -0.8138,58.91927 -0.8138,33.04037 -0.8138,58.75651 z"
       style="font-style:normal;font-variant:normal;font-weight:normal;font-stretch:normal;font-size:333.33334351px;font-family:'Comic Sans MS';-inkscape-font-specification:'Comic Sans MS, Normal';font-variant-ligatures:normal;font-variant-caps:normal;font-variant-numeric:normal;font-feature-settings:normal;text-align:center;writing-mode:lr-tb;text-anchor:middle;stroke-width:1.2693274px"
       id="path449" />
    <path
       d="m 3226.2728,713.80077 q -1.9531,23.92578 -1.9531,47.85157 0,54.19922 5.0456,81.86849 0.3255,2.27864 0.3255,3.74349 0,6.51041 -4.5573,10.74219 -4.5573,4.23177 -10.5794,4.23177 -10.0912,0 -14.8112,-14.64844 -11.7188,8.6263 -24.4141,13.02083 -12.5326,4.39453 -26.2044,4.39453 -33.6914,0 -55.8269,-22.46093 -22.7864,-22.94922 -22.7864,-58.91928 0,-43.45703 22.9492,-69.66146 23.112,-26.20443 59.8958,-26.20443 18.8802,0 29.1342,5.85938 l 15.2994,11.23047 q 2.2787,-68.52214 5.3711,-92.28516 2.1159,-14.48568 14.8112,-14.48568 14.8112,0 14.8112,15.78776 0,22.6237 -6.5104,99.9349 z m -72.2656,4.23177 q -27.3438,0 -41.0156,16.27605 -13.6719,16.11328 -13.6719,48.66536 0,20.9961 14.8112,36.13281 14.9739,15.13672 34.9935,15.13672 13.6718,0 23.1119,-5.04557 5.5339,-2.92969 18.0665,-13.50911 2.4414,-2.11589 4.72,-5.04558 l -0.4883,-28.15755 0.1628,-18.88021 0.3255,-19.20573 q -6.1849,-13.18359 -16.4388,-19.69401 -10.2539,-6.67318 -24.5768,-6.67318 z"
       style="font-style:normal;font-variant:normal;font-weight:normal;font-stretch:normal;font-size:333.33334351px;font-family:'Comic Sans MS';-inkscape-font-specification:'Comic Sans MS, Normal';font-variant-ligatures:normal;font-variant-caps:normal;font-variant-numeric:normal;font-feature-settings:normal;text-align:center;writing-mode:lr-tb;text-anchor:middle;stroke-width:1.2693274px"
       id="path451" />
    <path
       d="m 3348.1804,865.0052 q -36.7839,0 -59.5704,-18.39192 -24.9023,-20.34506 -24.9023,-56.96615 0,-42.31771 20.5078,-70.96355 22.2982,-31.25 59.5703,-31.25 27.0183,0 44.1081,9.11459 20.9961,11.23047 20.9961,34.50521 0,16.27604 -18.3919,29.62239 -8.1381,5.85938 -34.5052,18.22917 l -62.1745,29.45964 q 9.1146,13.50911 22.6237,20.34505 13.6718,6.83594 31.7383,6.83594 11.2304,0 26.3671,-4.23177 19.2058,-5.3711 24.7396,-13.9974 5.5339,-8.78906 11.8815,-8.78906 5.6967,0 10.0912,4.39453 4.5573,4.23177 4.5573,9.92838 0,18.06641 -29.1341,31.08725 -24.9024,11.0677 -48.5026,11.0677 z m -4.3946,-148.27474 q -19.8567,0 -33.0403,15.46224 -13.1836,15.29948 -19.6941,46.22396 l 49.9675,-23.76302 q 29.4596,-14.32292 41.9922,-24.90235 -13.9974,-13.02083 -39.2253,-13.02083 z"
       style="font-style:normal;font-variant:normal;font-weight:normal;font-stretch:normal;font-size:333.33334351px;font-family:'Comic Sans MS';-inkscape-font-specification:'Comic Sans MS, Normal';font-variant-ligatures:normal;font-variant-caps:normal;font-variant-numeric:normal;font-feature-settings:normal;text-align:center;writing-mode:lr-tb;text-anchor:middle;stroke-width:1.2693274px"
       id="path453" />
    <path
       d="m 3581.416,737.23827 q -1.1393,20.34506 -16.276,20.34506 -13.9974,0 -13.9974,-16.11329 0,-3.09244 -0.4883,-11.39323 l -0.4883,-13.67187 q -25.7161,3.09245 -41.1784,14.48568 -14.4856,10.57942 -24.0885,31.90104 l 0.3255,89.19271 q 0,16.4388 -16.1133,16.4388 -14.3229,0 -14.3229,-16.4388 V 737.72655 q 0,-5.37109 0.3255,-16.11328 0.4883,-10.74219 0.4883,-16.11328 0,-16.4388 14.3229,-16.4388 15.9506,0 16.1133,27.01823 31.25,-30.11068 69.336,-30.11068 13.1836,0 19.694,9.92839 6.5104,9.92838 6.5104,29.94791 0,8.46355 -0.1628,11.39323 z"
       style="font-style:normal;font-variant:normal;font-weight:normal;font-stretch:normal;font-size:333.33334351px;font-family:'Comic Sans MS';-inkscape-font-specification:'Comic Sans MS, Normal';font-variant-ligatures:normal;font-variant-caps:normal;font-variant-numeric:normal;font-feature-settings:normal;text-align:center;writing-mode:lr-tb;text-anchor:middle;stroke-width:1.2693274px"
       id="path455" />
  </g>
  <path
     id="path353"
     d="M 967.09211,450.43145 863.3884,346.72775 c -20.45735,-20.4573 -51.01053,-24.4425 -75.6302,-12.3098 l -94.40492,-94.4049 v -54.9958 l -113.35675,-85.01754 -56.67837,56.67834 85.01756,113.3568 h 54.99574 l 94.40491,94.4049 c -12.04415,24.6197 -8.14751,55.1729 12.30984,75.6302 l 103.70371,103.7037 c 12.92975,12.9298 33.8299,12.9298 46.6711,0 l 46.67109,-46.6711 c 12.8412,-12.9297 12.8412,-33.8299 0,-46.6711 z M 817.07154,299.25965 c 25.06247,0 48.61942,9.7416 66.33141,27.4536 l 17.18064,17.1806 c 13.99247,-6.1106 27.27646,-14.6124 38.78926,-26.1252 32.85574,-32.8557 44.0143,-79.084 33.56422,-121.0615 -1.94832,-7.9704 -11.95559,-10.7157 -17.80055,-4.8708 l -65.88861,65.8887 -60.13221,-10.0073 -10.00728,-60.1322 65.88861,-65.88865 c 5.84496,-5.84495 3.01104,-15.85223 -5.04792,-17.88911 -41.97742,-10.36151 -88.20571,0.79704 -120.9729,33.56426 -25.23959,25.2396 -37.10662,58.5381 -36.4867,91.7481 l 72.70772,72.7077 c 7.17336,-1.6826 14.6124,-2.5682 21.87431,-2.5682 z m -92.01379,72.6191 -50.2135,-50.21351 -134.96538,135.05401 c -22.13998,22.14 -22.13998,58.0068 0,80.1467 22.13999,22.14 58.00677,22.14 80.14676,0 l 109.46011,-109.4601 c -6.73055,-17.6234 -8.76743,-36.8409 -4.42799,-55.5271 z m -145.06122,146.124 c -11.68991,0 -21.25438,-9.5645 -21.25438,-21.2544 0,-11.7785 9.47591,-21.2544 21.25438,-21.2544 11.77848,0 21.25439,9.4759 21.25439,21.2544 0,11.68989 -9.47591,21.2544 -21.25439,21.2544 z"
     inkscape:connector-curvature="0"
     style="fill:currentColor;stroke-width:1" />
  <g
     style="font-style:normal;font-variant:normal;font-weight:normal;font-stretch:normal;font-size:40px;line-height:125%;font-family:'DIN Alternate';-inkscape-font-specification:'DIN Alternate';font-variant-ligatures:normal;font-variant-caps:normal;font-variant-numeric:normal;font-feature-settings:normal;text-align:center;letter-spacing:0px;word-spacing:0px;writing-mode:lr-tb;text-anchor:middle;fill:#000000;fill-opacity:1;stroke:none;stroke-width:1px;stroke-linecap:butt;stroke-linejoin:miter;stroke-opacity:1"
     id="flowRoot370" />
</svg>
